<svg xmlns="http://www.w3.org/2000/svg" width="595.931" height="533.503" viewBox="0 0 595.931 533.503">
  <path id="Path_7" data-name="Path 7" d="M1046.14-1383.531l214.827,1.594v-1.732s-16.859-9.524-29.414-22.512-20.8-29.439-20.8-29.439,37.206,24.615,112.781,24.936,116.2-24.936,116.2-24.936-4.476,12.32-16.179,24.936-30.633,25.527-30.633,25.527v1.86l216.312-1.127s9.025-5.6,12.521-13.616,1.464-18.466,1.464-18.466l-137.3-401.7s-22.363-42.343-60.481-66.683-76.269-28.978-91.359-30.215-55.622-.2-98.562,24.142-71.761,74.935-71.761,74.935l-131.8,391.649s-6.577,15.653-3.029,25.865S1046.14-1383.531,1046.14-1383.531Z" transform="translate(-1027.867 1915.44)" fill="#fff"/>
</svg>
